<svg xmlns="http://www.w3.org/2000/svg" viewBox="0 0 24 24">
<path fill="#ffffff" d="M19.5 5.3A16.6 16.6 0 0 0 15.4 4l-.5 1a15.4 15.4 0 0 0-5.8 0l-.5-1a16.5 16.5 0 0 0-4.1 1.3C1.9 9.2 1.2 13 1.6 16.7a16.8 16.8 0 0 0 5 2.5l1.2-1.7c-.7-.3-1.4-.6-2-1l.5-.4c3.8 1.8 7.9 1.8 11.6 0l.6.4c-.7.4-1.4.7-2.1 1l1.2 1.7a16.8 16.8 0 0 0 5-2.5c.5-4.3-.8-8.1-3.1-11.4ZM8.8 14.6c-1.2 0-2.1-1.1-2.1-2.4s.9-2.4 2.1-2.4 2.1 1.1 2.1 2.4-.9 2.4-2.1 2.4Zm6.4 0c-1.2 0-2.1-1.1-2.1-2.4s.9-2.4 2.1-2.4 2.1 1.1 2.1 2.4-.9 2.4-2.1 2.4Z"/>
</svg>